<mxfile host="2e06fb5f-02a7-404d-9cf4-1bb974f1bee0" modified="2020-09-13T13:13:10.252Z" agent="5.0 (Macintosh; Intel Mac OS X 10_15_6) AppleWebKit/537.36 (KHTML, like Gecko) Code/1.48.2 Chrome/78.0.3904.130 Electron/7.3.2 Safari/537.36" etag="SbycwgrYZGstB8LOvVYj" version="13.1.3">
    <diagram id="6hGFLwfOUW9BJ-s0fimq" name="Page-1">
        <mxGraphModel dx="785" dy="479" grid="1" gridSize="10" guides="1" tooltips="1" connect="1" arrows="1" fold="1" page="1" pageScale="1" pageWidth="827" pageHeight="1169" math="0" shadow="0">
            <root>
                <mxCell id="0"/>
                <mxCell id="1" parent="0"/>
                <mxCell id="2" value="组件生命周期" style="swimlane;html=1;childLayout=stackLayout;resizeParent=1;resizeParentMax=0;startSize=20;horizontal=0;horizontalStack=1;" vertex="1" parent="1">
                    <mxGeometry x="240" y="120" width="390" height="180" as="geometry"/>
                </mxCell>
                <mxCell id="3" value="创建时" style="swimlane;html=1;startSize=20;" vertex="1" parent="2">
                    <mxGeometry x="20" width="120" height="180" as="geometry"/>
                </mxCell>
                <mxCell id="8" value="" style="endArrow=classic;html=1;" edge="1" parent="3">
                    <mxGeometry width="50" height="50" relative="1" as="geometry">
                        <mxPoint x="60" y="30" as="sourcePoint"/>
                        <mxPoint x="59.58000000000004" y="60" as="targetPoint"/>
                    </mxGeometry>
                </mxCell>
                <mxCell id="9" value="onInit" style="text;html=1;align=center;verticalAlign=middle;resizable=0;points=[];autosize=1;" vertex="1" parent="3">
                    <mxGeometry x="40" y="64" width="40" height="20" as="geometry"/>
                </mxCell>
                <mxCell id="14" value="" style="endArrow=classic;html=1;" edge="1" parent="3">
                    <mxGeometry width="50" height="50" relative="1" as="geometry">
                        <mxPoint x="59.89999999999993" y="110" as="sourcePoint"/>
                        <mxPoint x="59.89999999999993" y="150" as="targetPoint"/>
                    </mxGeometry>
                </mxCell>
                <mxCell id="15" value="didMount" style="text;html=1;align=center;verticalAlign=middle;resizable=0;points=[];autosize=1;" vertex="1" parent="3">
                    <mxGeometry x="30" y="150" width="60" height="20" as="geometry"/>
                </mxCell>
                <mxCell id="4" value="更新时" style="swimlane;html=1;startSize=20;" vertex="1" parent="2">
                    <mxGeometry x="140" width="130" height="180" as="geometry"/>
                </mxCell>
                <mxCell id="10" value="deriveDataFromProps" style="rounded=0;whiteSpace=wrap;html=1;" vertex="1" parent="4">
                    <mxGeometry x="-80" y="90" width="180" height="20" as="geometry"/>
                </mxCell>
                <mxCell id="20" value="" style="endArrow=classic;html=1;" edge="1" parent="4">
                    <mxGeometry width="50" height="50" relative="1" as="geometry">
                        <mxPoint x="59.89999999999993" y="110" as="sourcePoint"/>
                        <mxPoint x="59.89999999999993" y="150" as="targetPoint"/>
                    </mxGeometry>
                </mxCell>
                <mxCell id="21" value="didUpdate" style="text;html=1;align=center;verticalAlign=middle;resizable=0;points=[];autosize=1;" vertex="1" parent="4">
                    <mxGeometry x="30" y="150" width="70" height="20" as="geometry"/>
                </mxCell>
                <mxCell id="17" value="" style="endArrow=classic;html=1;" edge="1" parent="4">
                    <mxGeometry width="50" height="50" relative="1" as="geometry">
                        <mxPoint x="29.999999999999943" y="60" as="sourcePoint"/>
                        <mxPoint x="30" y="90" as="targetPoint"/>
                    </mxGeometry>
                </mxCell>
                <mxCell id="16" value="nextProps" style="text;html=1;align=center;verticalAlign=middle;resizable=0;points=[];autosize=1;" vertex="1" parent="4">
                    <mxGeometry y="40" width="70" height="20" as="geometry"/>
                </mxCell>
                <mxCell id="19" value="" style="endArrow=classic;html=1;" edge="1" parent="4">
                    <mxGeometry width="50" height="50" relative="1" as="geometry">
                        <mxPoint x="90" y="60" as="sourcePoint"/>
                        <mxPoint x="90" y="90" as="targetPoint"/>
                    </mxGeometry>
                </mxCell>
                <mxCell id="18" value="setData" style="text;html=1;align=center;verticalAlign=middle;resizable=0;points=[];autosize=1;" vertex="1" parent="4">
                    <mxGeometry x="65" y="40" width="60" height="20" as="geometry"/>
                </mxCell>
                <mxCell id="5" value="删除时" style="swimlane;html=1;startSize=20;" vertex="1" parent="2">
                    <mxGeometry x="270" width="120" height="180" as="geometry"/>
                </mxCell>
                <mxCell id="22" value="" style="endArrow=classic;html=1;" edge="1" parent="5">
                    <mxGeometry width="50" height="50" relative="1" as="geometry">
                        <mxPoint x="59.66000000000008" y="40" as="sourcePoint"/>
                        <mxPoint x="60" y="130" as="targetPoint"/>
                    </mxGeometry>
                </mxCell>
                <mxCell id="23" value="didUnmount" style="text;html=1;align=center;verticalAlign=middle;resizable=0;points=[];autosize=1;" vertex="1" parent="5">
                    <mxGeometry x="20" y="150" width="80" height="20" as="geometry"/>
                </mxCell>
            </root>
        </mxGraphModel>
    </diagram>
</mxfile>